<?xml version="1.0" encoding="UTF-8" standalone="no"?><!DOCTYPE svg PUBLIC "-//W3C//DTD SVG 1.1//EN" "http://www.w3.org/Graphics/SVG/1.1/DTD/svg11.dtd"><svg width="100%" height="100%" viewBox="0 0 133 134" version="1.1" xmlns="http://www.w3.org/2000/svg" xmlns:xlink="http://www.w3.org/1999/xlink" xml:space="preserve" xmlns:serif="http://www.serif.com/" style="fill-rule:evenodd;clip-rule:evenodd;stroke-linejoin:round;stroke-miterlimit:2;"><path d="M132.385,19.682l-62.39,111.564c-1.288,2.303 -4.598,2.317 -5.905,0.025l-63.627,-111.578c-1.424,-2.498 0.712,-5.523 3.542,-5.017l62.457,11.163c0.398,0.071 0.806,0.071 1.204,-0.002l61.151,-11.145c2.821,-0.515 4.967,2.488 3.568,4.99Z" style="fill:url(#_Linear1);fill-rule:nonzero;"/><path d="M96.213,0.033l-46.17,9.047c-0.756,0.148 -1.321,0.794 -1.366,1.563l-2.84,47.967c-0.002,0.034 -0.003,0.067 -0.003,0.101c-0,0.93 0.765,1.695 1.695,1.695c0.128,0 0.256,-0.015 0.381,-0.043l12.855,-2.967c1.202,-0.277 2.289,0.782 2.042,1.991l-3.819,18.702c-0.257,1.258 0.924,2.334 2.153,1.961l7.94,-2.412c1.231,-0.374 2.414,0.705 2.153,1.965l-6.069,29.375c-0.379,1.838 2.065,2.84 3.084,1.265l0.681,-1.052l37.622,-75.082c0.63,-1.257 -0.457,-2.691 -1.837,-2.424l-13.232,2.554c-1.243,0.239 -2.301,-0.919 -1.95,-2.135l8.636,-29.937c0.351,-1.22 -0.711,-2.378 -1.956,-2.134l-0,-0Z" style="fill:url(#_Linear2);fill-rule:nonzero;"/><rect x="-2.666" y="-3.135" width="143.247" height="180.935" style="fill:#818b7d;"/><g transform="matrix(1,0,0,0.837167,0,0.483087)"><text x="-3.72px" y="105.791px" style="font-family:'ArialMT', 'Arial', sans-serif;font-size:85.743px;fill:#fff;">SRI</text></g><defs><linearGradient id="_Linear1" x1="0" y1="0" x2="1" y2="0" gradientUnits="userSpaceOnUse" gradientTransform="matrix(77.6486,83.7514,-83.7514,77.6486,-1.09013,23.677)"><stop offset="0" style="stop-color:#41d1ff;stop-opacity:1"/><stop offset="1" style="stop-color:#bd34fe;stop-opacity:1"/></linearGradient><linearGradient id="_Linear2" x1="0" y1="0" x2="1" y2="0" gradientUnits="userSpaceOnUse" gradientTransform="matrix(4.22656,96.3559,-96.3559,4.22656,72.2503,2.48911)"><stop offset="0" style="stop-color:#ffea83;stop-opacity:1"/><stop offset="0.08" style="stop-color:#ffdd35;stop-opacity:1"/><stop offset="1" style="stop-color:#ffa800;stop-opacity:1"/></linearGradient></defs></svg>